<svg width="35" height="33" viewBox="0 0 35 33" fill="none" xmlns="http://www.w3.org/2000/svg">
<g filter="url(#filter0_d_7_9)">
<path fill-rule="evenodd" clip-rule="evenodd" d="M9.09924 4.61508C10.1872 4.21161 12.3338 4.45868 12.9004 5.68721C13.3832 6.73441 13.798 8.50015 13.8207 8.12388C13.8751 7.28748 13.7663 5.47868 14.1312 4.53348C14.3964 3.84441 14.9178 3.19615 15.6862 2.96721C16.3322 2.77228 17.0915 2.70428 17.7624 2.84255C18.4719 2.98761 19.2176 3.49308 19.4964 3.97361C20.317 5.38575 20.3306 8.27801 20.3691 8.12388C20.5142 7.50735 20.5278 5.33815 21.0106 4.53348C21.3302 4.00081 22.1371 3.52481 22.5678 3.44775C23.2342 3.32988 24.0547 3.29361 24.7528 3.42961C25.3172 3.54068 26.0811 4.20935 26.2874 4.53348C26.7838 5.31321 27.0626 7.51641 27.1464 8.29161C27.1827 8.61121 27.3142 7.40081 27.8106 6.62335C28.7308 5.17495 31.9903 4.89388 32.1127 8.07175C32.1716 9.55415 32.158 9.48615 32.158 10.4835C32.158 11.6531 32.1308 12.3603 32.0674 13.208C31.9994 14.1124 31.8044 16.1637 31.5211 17.1565C31.3262 17.8388 30.6802 19.3733 30.041 20.2936C30.041 20.2936 27.6066 23.1269 27.3414 24.4008C27.0762 25.6769 27.1646 25.686 27.1102 26.5881C27.058 27.4925 27.3844 28.6803 27.3844 28.6803C27.3844 28.6803 25.5688 28.916 24.5874 28.7573C23.7011 28.6168 22.604 26.8533 22.3207 26.3139C21.9308 25.5704 21.099 25.7132 20.7748 26.2617C20.2671 27.1299 19.1678 28.6871 18.3948 28.7845C16.8784 28.9749 13.7368 28.8525 11.2775 28.8299C11.2775 28.8299 11.6968 26.5383 10.763 25.7517C10.0716 25.1624 8.88164 23.9747 8.16991 23.3491L6.28404 21.2615C5.64258 20.4455 4.01284 19.1557 3.46658 16.7621C2.98378 14.6405 3.03138 13.6001 3.55044 12.7501C4.07631 11.8865 5.06911 11.4151 5.48618 11.3335C5.95764 11.2383 7.05471 11.2451 7.46951 11.474C7.97498 11.7528 8.17898 11.8344 8.57564 12.3603C9.09698 13.0561 9.28284 13.3939 9.05844 12.6345C8.88618 12.0407 8.32858 11.2859 8.07471 10.4359C7.82764 9.61761 7.16578 8.29841 7.21338 6.97695C7.23151 6.47601 7.44684 5.22935 9.09924 4.61508Z" fill="white"/>
<path fill-rule="evenodd" clip-rule="evenodd" d="M9.09924 4.61508C10.1872 4.21161 12.3338 4.45868 12.9004 5.68721C13.3832 6.73441 13.798 8.50015 13.8207 8.12388C13.8751 7.28748 13.7663 5.47868 14.1312 4.53348C14.3964 3.84441 14.9178 3.19615 15.6862 2.96721C16.3322 2.77228 17.0915 2.70428 17.7624 2.84255C18.4719 2.98761 19.2176 3.49308 19.4964 3.97361C20.317 5.38575 20.3306 8.27801 20.3691 8.12388C20.5142 7.50735 20.5278 5.33815 21.0106 4.53348C21.3302 4.00081 22.1371 3.52481 22.5678 3.44775C23.2342 3.32988 24.0547 3.29361 24.7528 3.42961C25.3172 3.54068 26.0811 4.20935 26.2874 4.53348C26.7838 5.31321 27.0626 7.51641 27.1464 8.29161C27.1827 8.61121 27.3142 7.40081 27.8106 6.62335C28.7308 5.17495 31.9903 4.89388 32.1127 8.07175C32.1716 9.55415 32.158 9.48615 32.158 10.4835C32.158 11.6531 32.1308 12.3603 32.0674 13.208C31.9994 14.1124 31.8044 16.1637 31.5211 17.1565C31.3262 17.8388 30.6802 19.3733 30.041 20.2936C30.041 20.2936 27.6066 23.1269 27.3414 24.4008C27.0762 25.6769 27.1646 25.686 27.1102 26.5881C27.058 27.4925 27.3844 28.6803 27.3844 28.6803C27.3844 28.6803 25.5688 28.916 24.5874 28.7573C23.7011 28.6168 22.604 26.8533 22.3207 26.3139C21.9308 25.5704 21.099 25.7132 20.7748 26.2617C20.2671 27.1299 19.1678 28.6871 18.3948 28.7845C16.8784 28.9749 13.7368 28.8525 11.2775 28.8299C11.2775 28.8299 11.6968 26.5383 10.763 25.7517C10.0716 25.1624 8.88164 23.9747 8.16991 23.3491L6.28404 21.2615C5.64258 20.4455 4.01284 19.1557 3.46658 16.7621C2.98378 14.6405 3.03138 13.6001 3.55044 12.7501C4.07631 11.8865 5.06911 11.4151 5.48618 11.3335C5.95764 11.2383 7.05471 11.2451 7.46951 11.474C7.97498 11.7528 8.17898 11.8344 8.57564 12.3603C9.09698 13.0561 9.28284 13.3939 9.05844 12.6345C8.88618 12.0407 8.32858 11.2859 8.07471 10.4359C7.82764 9.61761 7.16578 8.29841 7.21338 6.97695C7.23151 6.47601 7.44684 5.22935 9.09924 4.61508Z" stroke="black" stroke-width="1.7" stroke-linejoin="round"/>
<path d="M24.9505 22.0646V14.2242" stroke="black" stroke-width="1.7" stroke-linecap="round"/>
<path d="M20.3818 22.0911L20.3455 14.2189" stroke="black" stroke-width="1.7" stroke-linecap="round"/>
<path d="M15.8573 14.2906L15.9049 22.0562" stroke="black" stroke-width="1.7" stroke-linecap="round"/>
</g>
<defs>
<filter id="filter0_d_7_9" x="-1" y="-1" width="38" height="35.7333" filterUnits="userSpaceOnUse" color-interpolation-filters="sRGB">
<feFlood flood-opacity="0" result="BackgroundImageFix"/>
<feColorMatrix in="SourceAlpha" type="matrix" values="0 0 0 0 0 0 0 0 0 0 0 0 0 0 0 0 0 0 127 0" result="hardAlpha"/>
<feOffset dy="1"/>
<feGaussianBlur stdDeviation="1"/>
<feColorMatrix type="matrix" values="0 0 0 0 0 0 0 0 0 0 0 0 0 0 0 0 0 0 0.21 0"/>
<feBlend mode="normal" in2="BackgroundImageFix" result="effect1_dropShadow_7_9"/>
<feBlend mode="normal" in="SourceGraphic" in2="effect1_dropShadow_7_9" result="shape"/>
</filter>
</defs>
</svg>
