<svg width="115" height="82" viewBox="0 0 115 82" fill="none" xmlns="http://www.w3.org/2000/svg">
<path d="M113.1 28.5475C115.443 30.8907 115.443 34.6897 113.1 37.0328L70.5289 79.6041C68.1858 81.9472 64.3868 81.9472 62.0436 79.6041L35.2535 52.8139C32.9103 50.4708 32.9103 46.6718 35.2535 44.3286L77.8247 1.75736C80.1679 -0.585789 83.9669 -0.585784 86.31 1.75736L113.1 28.5475Z" fill="#047857"/>
<path d="M80.4322 28.5475C82.7754 30.8907 82.7754 34.6897 80.4322 37.0328L37.8609 79.6041C35.5178 81.9472 31.7188 81.9472 29.3756 79.6041L2.58548 52.8139C0.242337 50.4708 0.24234 46.6718 2.58549 44.3286L45.1568 1.75736C47.4999 -0.585789 51.2989 -0.585784 53.6421 1.75736L80.4322 28.5475Z" fill="#34D399"/>
</svg>
