<svg width="141" height="91" viewBox="0 0 141 91" fill="none" xmlns="http://www.w3.org/2000/svg">
<path d="M87.027 61.6646C105.863 51.097 129.695 57.6404 140.494 76.3447L124.242 85.7276C105.32 96.6525 81.1189 90.0327 70.3916 70.9976L87.027 61.6646Z" fill="#FF6665"/>
<path d="M80.1361 54.2564C90.8965 35.619 114.728 29.2333 133.365 39.9936L123.624 56.8666C112.863 75.504 89.0319 81.8896 70.3945 71.1293L80.1361 54.2564Z" fill="#FF6665" fill-opacity="0.8"/>
<path d="M69.5518 52.4508C69.5518 29.8473 87.8756 11.5234 110.479 11.5234V30.6228C110.479 53.2264 92.1553 71.5502 69.5518 71.5502V52.4508Z" fill="#FF6665" fill-opacity="0.8"/>
<path d="M59.896 53.2292C49.1357 34.5919 55.5213 10.7603 74.1587 0L83.9003 16.873C94.6606 35.5104 88.275 59.3419 69.6376 70.1022L59.896 53.2292Z" fill="#FF6665" fill-opacity="0.8"/>
<path d="M69.5524 49.7223C69.5524 28.6257 52.4502 11.5234 31.3535 11.5234V33.3513C31.3535 54.448 48.4557 71.5502 69.5524 71.5502V49.7223Z" fill="#FF6665" fill-opacity="0.8"/>
<path d="M61.3298 54.2564C50.5695 35.619 26.738 29.2333 8.10059 39.9936L17.8422 56.8666C28.6025 75.504 52.434 81.8896 71.0714 71.1293L61.3298 54.2564Z" fill="#FF6665" fill-opacity="0.8"/>
<path d="M54.4385 61.6646C35.6025 51.097 11.7706 57.6404 0.97168 76.3447L17.2233 85.7276C36.1457 96.6525 60.3465 90.0327 71.0739 70.9976L54.4385 61.6646Z" fill="#FF6665"/>
</svg>
